<svg width="46" height="46" viewBox="0 0 46 46" fill="none" xmlns="http://www.w3.org/2000/svg">
<circle cx="23" cy="23" r="23" fill="#A84DD6"/>
<path fill-rule="evenodd" clip-rule="evenodd" d="M34.3326 22.2349C33.2742 16.3237 30.9078 14.5801 29.649 14.5801C27.6846 14.5801 27.1806 16.0405 22.9998 16.0897C18.819 16.0405 18.315 14.5801 16.3506 14.5801C15.0918 14.5801 12.7242 16.3237 11.6658 22.2349C11.0622 25.6093 10.407 30.6469 11.9682 31.2517C13.911 32.0041 14.5698 30.1225 16.7034 28.5325C18.8694 26.9209 19.9086 26.5417 22.9998 26.5417C26.091 26.5417 27.1302 26.9209 29.2962 28.5325C31.4298 30.1213 32.0886 32.0041 34.0314 31.2517C35.5926 30.6469 34.9374 25.6105 34.3326 22.2349ZM18.1998 23.0017C17.5633 23.0017 16.9529 22.7488 16.5028 22.2987C16.0527 21.8486 15.7998 21.2382 15.7998 20.6017C15.7998 19.9652 16.0527 19.3547 16.5028 18.9046C16.9529 18.4545 17.5633 18.2017 18.1998 18.2017C18.8364 18.2017 19.4468 18.4545 19.8969 18.9046C20.347 19.3547 20.5998 19.9652 20.5998 20.6017C20.5998 21.2382 20.347 21.8486 19.8969 22.2987C19.4468 22.7488 18.8364 23.0017 18.1998 23.0017ZM26.5998 23.0017C26.2816 23.0017 25.9764 22.8752 25.7513 22.6502C25.5263 22.4252 25.3998 22.1199 25.3998 21.8017C25.3998 21.4834 25.5263 21.1782 25.7513 20.9531C25.9764 20.7281 26.2816 20.6017 26.5998 20.6017C26.9181 20.6017 27.2233 20.7281 27.4484 20.9531C27.6734 21.1782 27.7998 21.4834 27.7998 21.8017C27.7998 22.1199 27.6734 22.4252 27.4484 22.6502C27.2233 22.8752 26.9181 23.0017 26.5998 23.0017ZM28.9998 20.6017C28.6816 20.6017 28.3764 20.4752 28.1513 20.2502C27.9263 20.0252 27.7998 19.7199 27.7998 19.4017C27.7998 19.0834 27.9263 18.7782 28.1513 18.5531C28.3764 18.3281 28.6816 18.2017 28.9998 18.2017C29.3181 18.2017 29.6233 18.3281 29.8484 18.5531C30.0734 18.7782 30.1998 19.0834 30.1998 19.4017C30.1998 19.7199 30.0734 20.0252 29.8484 20.2502C29.6233 20.4752 29.3181 20.6017 28.9998 20.6017Z" fill="white"/>
</svg>
