<svg width="46" height="46" viewBox="0 0 46 46" fill="none" xmlns="http://www.w3.org/2000/svg">
<circle cx="23" cy="23" r="23" fill="#FF5656"/>
<path d="M17.054 14.735L26.9705 18.983L23 20.684L13.1405 16.4585C13.3625 16.232 13.634 16.049 13.943 15.9305L17.054 14.7335V14.735ZM19.061 13.9625L21.386 13.0685C22.4254 12.6689 23.5761 12.6689 24.6155 13.0685L32.0585 15.9305C32.366 16.0505 32.6375 16.2305 32.8595 16.4585L28.8755 18.1655L19.061 13.9625ZM33.491 17.8205L23.75 21.995V33.17C24.044 33.1205 24.335 33.041 24.6155 32.933L32.0585 30.0695C32.4828 29.9061 32.8477 29.618 33.105 29.2431C33.3623 28.8682 33.5001 28.4242 33.5 27.9695V18.0305C33.5 17.96 33.497 17.8895 33.4895 17.8205H33.491ZM22.25 33.17V21.995L12.5105 17.8205C12.5037 17.8903 12.5002 17.9604 12.5 18.0305V27.9695C12.5001 28.4244 12.638 28.8685 12.8956 29.2434C13.1532 29.6183 13.5184 29.9063 13.943 30.0695L21.3845 32.933C21.6665 33.041 21.956 33.1205 22.25 33.17Z" fill="white"/>
</svg>
