<svg width="46" height="46" viewBox="0 0 46 46" fill="none" xmlns="http://www.w3.org/2000/svg">
<circle cx="23" cy="23" r="23" fill="#FF954B"/>
<path d="M31.25 17.0938H28.0625L27.3031 14.9656C27.2507 14.82 27.1545 14.6941 27.0278 14.6052C26.9011 14.5163 26.7501 14.4686 26.5953 14.4688H19.4047C19.0883 14.4688 18.8047 14.668 18.6992 14.9656L17.9375 17.0938H14.75C13.7141 17.0938 12.875 17.9328 12.875 18.9688V29.6562C12.875 30.6922 13.7141 31.5312 14.75 31.5312H31.25C32.2859 31.5312 33.125 30.6922 33.125 29.6562V18.9688C33.125 17.9328 32.2859 17.0938 31.25 17.0938ZM23 27.7812C20.9281 27.7812 19.25 26.1031 19.25 24.0312C19.25 21.9594 20.9281 20.2813 23 20.2813C25.0719 20.2813 26.75 21.9594 26.75 24.0312C26.75 26.1031 25.0719 27.7812 23 27.7812ZM20.75 24.0312C20.75 24.628 20.9871 25.2003 21.409 25.6222C21.831 26.0442 22.4033 26.2812 23 26.2812C23.5967 26.2812 24.169 26.0442 24.591 25.6222C25.0129 25.2003 25.25 24.628 25.25 24.0312C25.25 23.4345 25.0129 22.8622 24.591 22.4403C24.169 22.0183 23.5967 21.7812 23 21.7812C22.4033 21.7812 21.831 22.0183 21.409 22.4403C20.9871 22.8622 20.75 23.4345 20.75 24.0312Z" fill="white"/>
</svg>
