<svg width="46" height="46" viewBox="0 0 46 46" fill="none" xmlns="http://www.w3.org/2000/svg">
<circle cx="23" cy="23" r="23" fill="#FF4B7D"/>
<path d="M28.669 29.268C28.0201 29.2761 27.3755 29.1617 26.769 28.931C26.2256 28.7197 25.7346 28.3928 25.33 27.973C24.9314 27.544 24.6236 27.0389 24.425 26.488C24.2069 25.8786 24.0989 25.2352 24.106 24.588C24.1014 23.9519 24.2125 23.3203 24.434 22.724C24.6405 22.168 24.9583 21.6599 25.368 21.231C25.7788 20.8074 26.2696 20.4695 26.812 20.237C27.3995 19.9885 28.0322 19.8649 28.67 19.874C29.3555 19.8594 30.0343 20.0103 30.649 20.314C31.1977 20.5954 31.6735 21.0004 32.039 21.497C32.408 22.004 32.674 22.579 32.822 23.188C32.984 23.836 33.042 24.505 32.993 25.171H26.562C26.536 25.804 26.753 26.421 27.168 26.9C27.6038 27.2823 28.1736 27.4758 28.752 27.438C29.206 27.448 29.652 27.318 30.03 27.065C30.33 26.882 30.56 26.605 30.683 26.276H32.838C32.5938 27.2047 32.0319 28.0185 31.25 28.576C30.4761 29.0547 29.5786 29.2953 28.669 29.268ZM28.6 21.724C28.264 21.7114 27.9299 21.78 27.626 21.924C27.388 22.044 27.177 22.211 27.006 22.414C26.856 22.599 26.743 22.813 26.678 23.042C26.6203 23.2332 26.5831 23.43 26.567 23.629H30.549C30.5203 23.1104 30.3226 22.6156 29.986 22.22C29.8018 22.0461 29.5835 21.9122 29.3449 21.8268C29.1064 21.7415 28.8528 21.7065 28.6 21.724ZM18.97 29.036H13V16.731H18.8C19.3373 16.7263 19.8736 16.7783 20.4 16.886C20.846 16.973 21.27 17.146 21.651 17.394C21.995 17.632 22.271 17.956 22.451 18.333C22.651 18.787 22.746 19.28 22.731 19.776C22.7527 20.3246 22.6073 20.8669 22.314 21.331C21.994 21.774 21.559 22.123 21.058 22.342C21.739 22.512 22.338 22.919 22.748 23.489C23.128 24.076 23.321 24.765 23.3 25.464C23.3145 26.0232 23.1916 26.5774 22.942 27.078C22.712 27.522 22.378 27.904 21.968 28.191C21.5434 28.4864 21.0692 28.7032 20.568 28.831C20.0448 28.9684 19.506 29.0377 18.965 29.037L18.97 29.036ZM15.71 23.553V26.943H18.6C18.855 26.946 19.11 26.92 19.36 26.866C19.589 26.822 19.806 26.733 20 26.604C20.1867 26.4812 20.3383 26.312 20.44 26.113C20.558 25.863 20.613 25.589 20.602 25.313C20.6259 25.0606 20.59 24.8061 20.4972 24.5702C20.4045 24.3343 20.2574 24.1235 20.068 23.955C19.6535 23.6697 19.1565 23.5291 18.654 23.555L15.71 23.553ZM15.71 18.828V21.703H18.452C18.876 21.72 19.294 21.599 19.644 21.358C19.8064 21.2232 19.9335 21.0508 20.0143 20.8559C20.0951 20.6609 20.1273 20.4492 20.108 20.239C20.1164 19.9941 20.0642 19.7509 19.956 19.531C19.8582 19.3533 19.7141 19.2054 19.539 19.103C19.3546 18.9936 19.1509 18.9207 18.939 18.888C18.7082 18.8447 18.4738 18.8243 18.239 18.827L15.71 18.828ZM31.051 18.772H26.061V17.557H31.051V18.772Z" fill="white"/>
</svg>
