<svg width="28" height="28" viewBox="0 0 28 28" fill="none" xmlns="http://www.w3.org/2000/svg">
<path d="M5.80843 8.26427C8.97697 3.73912 15.2106 2.63997 19.7357 5.80852C24.2609 8.97706 25.36 15.2106 22.1915 19.7358C19.0229 24.261 12.7893 25.3601 8.26418 22.1916C3.73903 19.023 2.63988 12.7894 5.80843 8.26427ZM9.88318 12.54L14.0207 11.7207L9.79756 17.7521C9.48995 18.1914 9.59591 18.7923 10.0352 19.0999L10.5637 19.4699C11.003 19.7775 11.6039 19.6716 11.9115 19.2323L16.1347 13.2009L16.7799 17.3692C16.8627 17.9047 17.3701 18.2698 17.9036 18.1757L18.518 18.0645C19.0459 17.9714 19.3975 17.4693 19.3021 16.9447L17.9914 9.49482C17.8983 8.96693 17.3962 8.61538 16.8716 8.71078L9.4161 10.0225C8.88822 10.1156 8.53667 10.6176 8.63206 11.1422L8.73768 11.7576C8.83506 12.2935 9.35165 12.6453 9.88318 12.54Z" fill="#FFBA00"/>
</svg>
