<svg width="40" height="29" viewBox="0 0 40 29" fill="none" xmlns="http://www.w3.org/2000/svg">
<path d="M15.7666 5.23446C17.8999 3.51983 21.2433 2.41663 24.9999 2.41663C31.4433 2.41663 36.6666 5.66221 36.6666 9.66663C36.6666 12.07 34.7833 14.2003 31.8866 15.5198C31.8144 15.5518 31.7411 15.5825 31.6666 15.6116V20.5054C31.6666 20.746 31.5675 20.9811 31.3821 21.1806C31.1966 21.3801 30.9333 21.5349 30.6257 21.6252C30.3182 21.7156 29.9804 21.7373 29.6558 21.6876C29.3311 21.6379 29.0342 21.5191 28.8033 21.3464L26.9033 19.9278C28.6849 18.4005 29.7333 16.5251 29.7333 14.4988C29.7333 9.58446 23.5699 5.56313 15.7666 5.23446Z" fill="#FFBA00"/>
<path d="M17.308 21.6123L11.1963 26.1798C10.9654 26.3525 10.6685 26.4713 10.3439 26.521C10.0192 26.5707 9.68143 26.549 9.37388 26.4586C9.06632 26.3683 8.80296 26.2135 8.61753 26.0139C8.43209 25.8144 8.33302 25.5793 8.33301 25.3388V20.445C8.25855 20.4158 8.18519 20.3852 8.11301 20.3532C5.21467 19.0337 3.33301 16.9034 3.33301 14.5C3.33301 10.4956 8.55634 7.25 14.9997 7.25C21.443 7.25 26.6663 10.4956 26.6663 14.5C26.6663 17.7939 23.1313 20.5755 18.2897 21.4576C17.9652 21.5179 17.6377 21.5695 17.308 21.6123Z" fill="#FFBA00"/>
</svg>
