<svg width="40" height="40" viewBox="0 0 40 40" fill="none" xmlns="http://www.w3.org/2000/svg">
<circle cx="20" cy="20" r="20" fill="#EB2430"/>
<path d="M20.1923 12.5C15.9615 12.5 13.75 15.3438 13.75 18.4922C13.75 20.0156 14.5192 21.5391 15.7692 22.3516C16.1538 22.5547 16.0577 22.3516 16.3462 21.1328C16.3462 21.0312 16.3462 20.9297 16.25 20.8281C14.5192 18.5937 15.9615 14.2266 20 14.2266C25.8654 14.2266 24.7115 22.7578 21.0577 22.7578C20.2885 22.8594 19.6154 22.25 19.6154 21.4375V21.0312C20 19.9141 20.2885 18.8984 20.3846 17.7812C20.3846 15.6484 17.4038 15.9531 17.4038 18.7969C17.4038 19.3047 17.5 19.8125 17.6923 20.2188C17.6923 20.2188 16.7308 24.3828 16.5385 25.0938C16.3462 26.3125 16.4423 27.5312 16.6346 28.6484C16.5385 28.75 16.6346 28.75 16.6346 28.75H16.7308C17.4038 27.7344 17.9808 26.7188 18.3654 25.6016C18.4615 25.0938 18.9423 23.2656 18.9423 23.2656C19.4231 23.9766 20.2885 24.3828 21.1538 24.3828C24.1346 24.3828 26.25 21.6406 26.25 18.2891C26.25 14.9375 23.5577 12.5 20.1923 12.5Z" fill="white"/>
</svg>
