<svg width="40" height="40" viewBox="0 0 40 40" fill="none" xmlns="http://www.w3.org/2000/svg">
<circle cx="20" cy="20" r="20" fill="#59ADEC"/>
<path d="M28.0727 16.2383C28.0846 16.4023 28.0846 16.5664 28.0846 16.7305C28.0846 21.7344 24.218 27.5 17.151 27.5C14.9738 27.5 12.9513 26.8789 11.25 25.8008C11.5593 25.8359 11.8567 25.8477 12.178 25.8477C13.9744 25.8477 15.6282 25.25 16.9488 24.2305C15.2594 24.1953 13.8436 23.1055 13.3558 21.6055C13.5938 21.6406 13.8317 21.664 14.0816 21.664C14.4266 21.664 14.7716 21.6172 15.0928 21.5352C13.332 21.1836 12.0114 19.6601 12.0114 17.8203V17.7734C12.523 18.0547 13.1179 18.2305 13.7484 18.2539C12.7133 17.5742 12.0352 16.414 12.0352 15.1015C12.0352 14.3984 12.2255 13.7539 12.5587 13.1914C14.4503 15.4883 17.2938 16.9882 20.4822 17.1523C20.4227 16.8711 20.387 16.5781 20.387 16.2852C20.387 14.1992 22.1003 12.5 24.2298 12.5C25.3363 12.5 26.3356 12.957 27.0376 13.6953C27.9061 13.5313 28.7389 13.2148 29.4765 12.7813C29.191 13.6602 28.5842 14.3985 27.7871 14.8672C28.5605 14.7852 29.31 14.5742 30 14.2813C29.4766 15.0312 28.8222 15.6992 28.0727 16.2383Z" fill="white"/>
</svg>
