<svg width="67" height="67" viewBox="0 0 67 67" fill="none" xmlns="http://www.w3.org/2000/svg">
<path d="M43.7628 20.8612C41.0944 20.1318 37.3792 19.0557 34.4063 19.0557C19.7334 19.0557 7.8418 28.6901 7.8418 40.5707C7.8418 47.3993 11.7692 53.4876 17.8928 57.4273L16.2336 63.2051C16.1407 63.5288 16.1209 63.8709 16.1757 64.2041C16.2305 64.5374 16.3585 64.8524 16.5493 65.1241C16.7402 65.3957 16.9886 65.6164 17.2748 65.7686C17.561 65.9207 17.8769 66 18.1973 66.0001H24.2321C24.6762 66.0001 25.1083 65.8481 25.4636 65.5668L30.236 61.7859H38.5731L43.3455 65.5668C43.7008 65.8481 44.1329 66.0001 44.5771 66.0001H50.6118C50.9322 66 51.2481 65.9207 51.5343 65.7686C51.8205 65.6164 52.0689 65.3957 52.2598 65.1241C52.4506 64.8524 52.5786 64.5374 52.6334 64.2041C52.6882 63.8709 52.6684 63.5288 52.5755 63.2051L50.9163 57.4273C54.5665 55.0801 57.4334 51.9709 59.1576 48.3959" stroke="white" stroke-opacity="0.7" stroke-width="2" stroke-linecap="round" stroke-linejoin="round"/>
<path d="M43.7627 20.861L59.1574 15.4443L58.8701 28.5454L65.9995 31.6943V44.3332L59.4106 47.9443" stroke="white" stroke-opacity="0.7" stroke-width="2" stroke-linecap="round" stroke-linejoin="round"/>
<path d="M47.1842 37.1111C46.7305 37.1111 46.2954 36.9209 45.9746 36.5823C45.6538 36.2437 45.4736 35.7844 45.4736 35.3056C45.4736 34.8267 45.6538 34.3674 45.9746 34.0288C46.2954 33.6902 46.7305 33.5 47.1842 33.5C47.6378 33.5 48.0729 33.6902 48.3937 34.0288C48.7145 34.3674 48.8947 34.8267 48.8947 35.3056C48.8947 35.7844 48.7145 36.2437 48.3937 36.5823C48.0729 36.9209 47.6378 37.1111 47.1842 37.1111Z" fill="white" stroke="white" stroke-opacity="0.7" stroke-width="2" stroke-linecap="round" stroke-linejoin="round"/>
<path d="M1 26.2778C1 26.2778 1 34.9445 7.84211 37.1112" stroke="white" stroke-opacity="0.7" stroke-width="2" stroke-linecap="round" stroke-linejoin="round"/>
<path d="M37.9477 18.1636C38.3925 16.8203 38.6319 15.3758 38.6319 13.8736C38.6319 6.76333 33.2711 1 26.6583 1C20.0454 1 14.6846 6.76333 14.6846 13.8736C14.6846 17.2717 15.9093 20.3664 17.914 22.6667" stroke="white" stroke-opacity="0.7" stroke-width="2" stroke-linejoin="round"/>
</svg>
