<svg width="64" height="64" viewBox="0 0 64 64" fill="none" xmlns="http://www.w3.org/2000/svg">
<path d="M50.6667 21.3334H13.3333C10.3878 21.3334 8 23.7212 8 26.6667V53.3334C8 56.2789 10.3878 58.6667 13.3333 58.6667H50.6667C53.6122 58.6667 56 56.2789 56 53.3334V26.6667C56 23.7212 53.6122 21.3334 50.6667 21.3334Z" stroke="white" stroke-opacity="0.7" stroke-width="2" stroke-linecap="round" stroke-linejoin="round"/>
<path d="M32 13.3334C32 11.7511 31.5308 10.2044 30.6518 8.88882C29.7727 7.57322 28.5233 6.54784 27.0615 5.94234C25.5997 5.33684 23.9911 5.17841 22.4393 5.4871C20.8874 5.79578 19.462 6.5577 18.3431 7.67652C17.2243 8.79534 16.4624 10.2208 16.1537 11.7727C15.845 13.3245 16.0035 14.933 16.609 16.3948C17.2145 17.8567 18.2398 19.1061 19.5554 19.9851C20.871 20.8642 22.4178 21.3334 24 21.3334" stroke="white" stroke-opacity="0.7" stroke-width="2" stroke-linecap="round" stroke-linejoin="round"/>
<path d="M40 21.3334C41.5823 21.3334 43.129 20.8642 44.4446 19.9851C45.7602 19.1061 46.7855 17.8567 47.391 16.3948C47.9965 14.933 48.155 13.3245 47.8463 11.7727C47.5376 10.2208 46.7757 8.79534 45.6569 7.67652C44.538 6.5577 43.1126 5.79578 41.5607 5.4871C40.0089 5.17841 38.4003 5.33684 36.9385 5.94234C35.4767 6.54784 34.2273 7.57322 33.3482 8.88882C32.4692 10.2044 32 11.7511 32 13.3334" stroke="white" stroke-opacity="0.7" stroke-width="2" stroke-linecap="round" stroke-linejoin="round"/>
<path d="M32 13.3334V58.6667" stroke="white" stroke-opacity="0.7" stroke-width="2" stroke-linecap="round" stroke-linejoin="round"/>
<path d="M56 40H8" stroke="white" stroke-opacity="0.7" stroke-width="2" stroke-linecap="round" stroke-linejoin="round"/>
</svg>
