<svg width="64" height="64" viewBox="0 0 64 64" fill="none" xmlns="http://www.w3.org/2000/svg">
<path d="M15.0823 54.6106C14.6995 54.9436 14.2295 55.1604 13.7278 55.2355C13.226 55.3107 12.7132 55.2412 12.2495 55.0352C11.7859 54.8291 11.3906 54.495 11.1102 54.0722C10.8298 53.6493 10.6758 53.1553 10.6663 52.648V46.6666C9.25185 46.6666 7.8953 46.1047 6.8951 45.1045C5.89491 44.1043 5.33301 42.7478 5.33301 41.3333V22.6666C5.33301 21.2521 5.89491 19.8956 6.8951 18.8954C7.8953 17.8952 9.25185 17.3333 10.6663 17.3333H39.9997C41.4142 17.3333 42.7707 17.8952 43.7709 18.8954C44.7711 19.8956 45.333 21.2521 45.333 22.6666V41.3333C45.333 42.7478 44.7711 44.1043 43.7709 45.1045C42.7707 46.1047 41.4142 46.6666 39.9997 46.6666H26.6743L15.0823 54.6106ZM17.333 46.3626C17.576 46.3612 17.8146 46.2979 18.0263 46.1786L24.3063 41.8106C24.7533 41.4998 25.2846 41.3333 25.829 41.3333H37.333C38.0403 41.3333 38.7185 41.0523 39.2186 40.5522C39.7187 40.0521 39.9997 39.3739 39.9997 38.6666V25.3333C39.9997 24.626 39.7187 23.9478 39.2186 23.4477C38.7185 22.9476 38.0403 22.6666 37.333 22.6666H13.333C12.6258 22.6666 11.9475 22.9476 11.4474 23.4477C10.9473 23.9478 10.6663 24.626 10.6663 25.3333V38.6666C10.6663 40.1066 11.8103 41.2853 13.333 41.3333C14.4263 41.376 15.2183 41.5546 15.5837 41.936C15.925 42.2933 15.9437 42.896 15.9997 44.0426C16.0077 44.2106 16.0077 44.5146 15.9997 45.0293C15.9997 45.3829 16.1402 45.7221 16.3902 45.9721C16.6402 46.2222 16.9794 46.3626 17.333 46.3626ZM47.9997 33.376C47.9911 33.7048 47.9911 34.0338 47.9997 34.3626V33.376C48.053 32.2293 48.0743 31.6266 48.4157 31.2693C48.781 30.888 49.573 30.7093 50.6663 30.6666C52.189 30.6186 53.333 29.44 53.333 28V14.6666C53.333 13.9594 53.0521 13.2811 52.552 12.781C52.0519 12.2809 51.3736 12 50.6663 12H26.6663C25.9591 12 25.2808 12.2809 24.7807 12.781C24.2806 13.2811 23.9997 13.9594 23.9997 14.6666H18.6663V12C18.6663 10.5855 19.2282 9.22892 20.2284 8.22872C21.2286 7.22853 22.5852 6.66663 23.9997 6.66663H53.333C54.7475 6.66663 56.104 7.22853 57.1042 8.22872C58.1044 9.22892 58.6663 10.5855 58.6663 12V30.6666C58.6663 32.0811 58.1044 33.4377 57.1042 34.4379C56.104 35.4381 54.7475 36 53.333 36V41.9813C53.3236 42.4886 53.1696 42.9827 52.8892 43.4055C52.6087 43.8284 52.2135 44.1624 51.7498 44.3685C51.2862 44.5746 50.7734 44.6441 50.2716 44.5689C49.7698 44.4937 49.2999 44.2769 48.917 43.944L47.9997 43.3146V33.3786V33.376Z" fill="white" fill-opacity="0.74"/>
</svg>
